<svg width="1368" height="350" viewBox="0 0 1368 350" fill="none" xmlns="http://www.w3.org/2000/svg">
<g clip-path="url(#clip0_480_726)">
<rect width="1368" height="350" fill="#2D2D48"/>
<path fill-rule="evenodd" clip-rule="evenodd" d="M-39.2903 13L-120 59.5978V152.793L-39.2903 199.391L41.4194 152.793V59.5978L-39.2903 13ZM37.6916 60.3152L2.30717 39.886V80.7444L37.6916 60.3152ZM-0.178048 82.1792V38.4511L-78.4025 83.6141V173.94L-40.5329 152.076V105.478L-0.178048 82.1792ZM-40.5329 154.946L-75.9173 175.375L-40.5329 195.804V154.946ZM-38.0477 195.804V106.913L38.9342 62.4674V151.358L-38.0477 195.804ZM-2.66326 37.0163L-38.0477 16.5871V57.4455L-2.66326 37.0163ZM-40.5329 58.8804L-80.8878 82.1792V128.777L-117.515 149.924V61.0326L-40.5329 16.5871V58.8804ZM-116.272 152.076L-80.8878 131.647V172.505L-116.272 152.076Z" fill="url(#paint0_linear_480_726)"/>
<path fill-rule="evenodd" clip-rule="evenodd" d="M119.763 13L39.0537 59.5978V152.793L119.763 199.391L200.473 152.793V59.5978L119.763 13ZM196.745 60.3152L161.361 39.886V80.7444L196.745 60.3152ZM158.876 82.1792V38.4511L80.6512 83.6141V173.94L118.521 152.076V105.478L158.876 82.1792ZM118.521 154.946L83.1364 175.375L118.521 195.804V154.946ZM121.006 195.804V106.913L197.988 62.4674V151.358L121.006 195.804ZM156.39 37.0163L121.006 16.5871V57.4455L156.39 37.0163ZM118.521 58.8804L78.166 82.1792V128.777L41.5389 149.924V61.0326L118.521 16.5871V58.8804ZM42.7815 152.076L78.166 131.647V172.505L42.7815 152.076Z" fill="url(#paint1_linear_480_726)"/>
<path fill-rule="evenodd" clip-rule="evenodd" d="M40.2366 150.308L-40.4731 196.906V290.101L40.2366 336.699L120.946 290.101V196.906L40.2366 150.308ZM117.218 197.623L81.834 177.194V218.052L117.218 197.623ZM79.3488 219.487V175.759L1.12432 220.922V311.248L38.994 289.384V242.786L79.3488 219.487ZM38.994 292.254L3.60955 312.683L38.994 333.112V292.254ZM41.4792 333.112V244.221L118.461 199.776V288.667L41.4792 333.112ZM76.8636 174.324L41.4792 153.895V194.754L76.8636 174.324ZM38.994 196.188L-1.36089 219.487V266.085L-37.9879 287.232V198.341L38.994 153.895V196.188ZM-36.7453 289.384L-1.36089 268.955V309.813L-36.7453 289.384Z" fill="url(#paint2_linear_480_726)"/>
<path fill-rule="evenodd" clip-rule="evenodd" d="M199.29 150.929L118.581 197.527V290.723L199.29 337.32L280 290.723V197.527L199.29 150.929ZM276.272 198.245L240.888 177.815V218.674L276.272 198.245ZM238.403 220.109V176.381L160.178 221.543V311.869L198.048 290.005V243.408L238.403 220.109ZM198.048 292.875L162.663 313.304L198.048 333.733V292.875ZM200.533 333.733V244.842L277.515 200.397V289.288L200.533 333.733ZM235.917 174.946L200.533 154.516V195.375L235.917 174.946ZM198.048 196.81L157.693 220.109V266.706L121.066 287.853V198.962L198.048 154.516V196.81ZM122.308 290.005L157.693 269.576V310.435L122.308 290.005Z" fill="url(#paint3_linear_480_726)"/>
<path fill-rule="evenodd" clip-rule="evenodd" d="M1150.71 13L1070 59.5978V152.793L1150.71 199.391L1231.42 152.793V59.5978L1150.71 13ZM1227.69 60.3152L1192.31 39.886V80.7444L1227.69 60.3152ZM1189.82 82.1792V38.4511L1111.6 83.6141V173.94L1149.47 152.076V105.478L1189.82 82.1792ZM1149.47 154.946L1114.08 175.375L1149.47 195.804V154.946ZM1151.95 195.804V106.913L1228.93 62.4674V151.358L1151.95 195.804ZM1187.34 37.0163L1151.95 16.5871V57.4455L1187.34 37.0163ZM1149.47 58.8804L1109.11 82.1792V128.777L1072.49 149.924V61.0326L1149.47 16.5871V58.8804ZM1073.73 152.076L1109.11 131.647V172.505L1073.73 152.076Z" fill="url(#paint4_linear_480_726)"/>
<path fill-rule="evenodd" clip-rule="evenodd" d="M1309.76 13L1229.05 59.5978V152.793L1309.76 199.391L1390.47 152.793V59.5978L1309.76 13ZM1386.75 60.3152L1351.36 39.886V80.7444L1386.75 60.3152ZM1348.88 82.1792V38.4511L1270.65 83.6141V173.94L1308.52 152.076V105.478L1348.88 82.1792ZM1308.52 154.946L1273.14 175.375L1308.52 195.804V154.946ZM1311.01 195.804V106.913L1387.99 62.4674V151.358L1311.01 195.804ZM1346.39 37.0163L1311.01 16.5871V57.4455L1346.39 37.0163ZM1308.52 58.8804L1268.17 82.1792V128.777L1231.54 149.924V61.0326L1308.52 16.5871V58.8804ZM1232.78 152.076L1268.17 131.647V172.505L1232.78 152.076Z" fill="url(#paint5_linear_480_726)"/>
<path fill-rule="evenodd" clip-rule="evenodd" d="M1230.24 150.308L1149.53 196.906V290.101L1230.24 336.699L1310.95 290.101V196.906L1230.24 150.308ZM1307.22 197.623L1271.83 177.194V218.052L1307.22 197.623ZM1269.35 219.487V175.759L1191.12 220.922V311.248L1228.99 289.384V242.786L1269.35 219.487ZM1228.99 292.254L1193.61 312.683L1228.99 333.112V292.254ZM1231.48 333.112V244.221L1308.46 199.776V288.667L1231.48 333.112ZM1266.86 174.324L1231.48 153.895V194.754L1266.86 174.324ZM1228.99 196.188L1188.64 219.487V266.085L1152.01 287.232V198.341L1228.99 153.895V196.188ZM1153.25 289.384L1188.64 268.955V309.813L1153.25 289.384Z" fill="url(#paint6_linear_480_726)"/>
<path fill-rule="evenodd" clip-rule="evenodd" d="M1389.29 150.929L1308.58 197.527V290.723L1389.29 337.32L1470 290.723V197.527L1389.29 150.929ZM1466.27 198.245L1430.89 177.815V218.674L1466.27 198.245ZM1428.4 220.109V176.381L1350.18 221.543V311.869L1388.05 290.005V243.408L1428.4 220.109ZM1388.05 292.875L1352.66 313.304L1388.05 333.733V292.875ZM1390.53 333.733V244.842L1467.51 200.397V289.288L1390.53 333.733ZM1425.92 174.946L1390.53 154.516V195.375L1425.92 174.946ZM1388.05 196.81L1347.69 220.109V266.706L1311.07 287.853V198.962L1388.05 154.516V196.81ZM1312.31 290.005L1347.69 269.576V310.435L1312.31 290.005Z" fill="url(#paint7_linear_480_726)"/>
</g>
<defs>
<linearGradient id="paint0_linear_480_726" x1="-106.803" y1="308.713" x2="150.326" y2="-50.9473" gradientUnits="userSpaceOnUse">
<stop stop-color="#F3904A"/>
<stop offset="0.999" stop-color="#AA437F"/>
</linearGradient>
<linearGradient id="paint1_linear_480_726" x1="-106.803" y1="308.713" x2="150.326" y2="-50.9473" gradientUnits="userSpaceOnUse">
<stop stop-color="#F3904A"/>
<stop offset="0.999" stop-color="#AA437F"/>
</linearGradient>
<linearGradient id="paint2_linear_480_726" x1="-106.803" y1="308.713" x2="150.326" y2="-50.9473" gradientUnits="userSpaceOnUse">
<stop stop-color="#F3904A"/>
<stop offset="0.999" stop-color="#AA437F"/>
</linearGradient>
<linearGradient id="paint3_linear_480_726" x1="-106.803" y1="308.713" x2="150.326" y2="-50.9473" gradientUnits="userSpaceOnUse">
<stop stop-color="#F3904A"/>
<stop offset="0.999" stop-color="#AA437F"/>
</linearGradient>
<linearGradient id="paint4_linear_480_726" x1="1083.2" y1="308.713" x2="1340.33" y2="-50.9473" gradientUnits="userSpaceOnUse">
<stop stop-color="#F3904A"/>
<stop offset="0.999" stop-color="#AA437F"/>
</linearGradient>
<linearGradient id="paint5_linear_480_726" x1="1083.2" y1="308.713" x2="1340.33" y2="-50.9473" gradientUnits="userSpaceOnUse">
<stop stop-color="#F3904A"/>
<stop offset="0.999" stop-color="#AA437F"/>
</linearGradient>
<linearGradient id="paint6_linear_480_726" x1="1083.2" y1="308.713" x2="1340.33" y2="-50.9473" gradientUnits="userSpaceOnUse">
<stop stop-color="#F3904A"/>
<stop offset="0.999" stop-color="#AA437F"/>
</linearGradient>
<linearGradient id="paint7_linear_480_726" x1="1083.2" y1="308.713" x2="1340.33" y2="-50.9473" gradientUnits="userSpaceOnUse">
<stop stop-color="#F3904A"/>
<stop offset="0.999" stop-color="#AA437F"/>
</linearGradient>
<clipPath id="clip0_480_726">
<rect width="1368" height="350" fill="white"/>
</clipPath>
</defs>
</svg>
